<svg xmlns="http://www.w3.org/2000/svg" viewBox="0 0 204.59 173.97"><defs><style>.cls-1{fill:none;stroke:#fff;stroke-linecap:round;stroke-miterlimit:10;stroke-width:8px;}</style></defs><title>logo</title><g id="Layer_2" data-name="Layer 2"><g id="Layer_1-2" data-name="Layer 1"><path class="cls-1" d="M69.33,101.94c-6.93,0-8.32-4.26-9-9-.94-6.46,7.06-12.38,13-12,8,.5,14.64,12.48,12,22-2.22,8-10.49,12.3-17,13-12.32,1.33-24.56-9.53-26-21-1.92-15.2,15.35-29.73,31-29,18.12.85,32.1,22.1,28,40-3.9,17-22.65,24.61-36,25-21.14.62-41.16-16.48-43-36C20,70,47.86,47.82,74.33,49.94c19.42,1.56,45,15,44,57-.68,28.34-34.1,41.51-57,41-29-.64-53.91-23.86-57-50-4.27-36,34-68,70-66,30.18,1.67,50.52,15.91,57,24,4,5,4.44,6.85,7,11,4.88,7.93,8.32,13.5,11,13,3.52-.66,5.87-11.9,4-22-2.83-15.2-14.77-25.46-19-29-11.92-10-22.38-11.72-22-17,.3-4.26,7.38-6.79,8-7,12.89-4.45,27.48,8.11,32,12,3.49,3,15.81,13.89,21,32,3.7,12.94.58,18.46,7,27,4.1,5.47,7.54,6.07,13,14,3.19,4.64,6.13,8.9,7,15,1.08,7.64-1,18.8-9,24-5.72,3.71-12.2,2.93-20,2a55.21,55.21,0,0,1-15-4c-1-.11-6.45-.66-8,2-2,3.42,3.86,9.77,5,11,2.61,2.83,5.77,4.92,12,9,4.59,3,5.93,3.62,6,5,.14,3.05-6.17,6.07-11,7a22.53,22.53,0,0,1-14-2c-7.2-3.58-10.56-10.11-12-13-3.59-7.21-1.64-9.84-5-13-5.41-5.07-15.18-2.69-18-2-5.69,1.39-9.36,4.2-13,7-4.14,3.17-6.34,4.92-7,8-1.19,5.53,3.61,10.6,4,11,4.1,4.22,8.63,3.67,9,6s-4.14,6.64-9,7c-6.87.51-12.65-6.71-23-20-4.4-5.64.25.46-2-3"/></g></g></svg>