<svg xmlns="http://www.w3.org/2000/svg" viewBox="0 0 268.88 120"><defs><style>.cls-1{fill:#97a9ff;}.cls-1,.cls-3{stroke:#1800ff;stroke-miterlimit:10;stroke-width:5px;}.cls-2{fill:#fff;}.cls-3{fill:none;}</style></defs><title>search_3</title><g id="Layer_2" data-name="Layer 2"><g id="Layer_1-2" data-name="Layer 1"><path class="cls-1" d="M198.88,2.5h64.83a2.67,2.67,0,0,1,2.67,2.67V111.81a5.69,5.69,0,0,1-5.69,5.69H198.88A57.5,57.5,0,0,1,141.38,60v0a57.5,57.5,0,0,1,57.5-57.5Z" transform="translate(407.76 120) rotate(180)"/><path class="cls-2" d="M117.5,11.89v97.89a3.75,3.75,0,0,1-3.75,3.75H60a59.7,59.7,0,0,1-40.66-15.6A51.25,51.25,0,0,1,2.5,60.25C2.5,30.82,28.24,7,60,7h52.57A4.93,4.93,0,0,1,117.5,11.89Z"/><path class="cls-3" d="M60,113.53h53.75a3.75,3.75,0,0,0,3.75-3.75V11.89A4.93,4.93,0,0,0,112.57,7H60C28.24,7,2.5,30.82,2.5,60.25A51.25,51.25,0,0,0,19.34,97.93,59.7,59.7,0,0,0,60,113.53Z"/></g></g></svg>