<svg xmlns="http://www.w3.org/2000/svg" viewBox="0 0 271 121"><defs><style>.cls-1{fill:#fff;}.cls-2{fill:#ff9494;}.cls-3{fill:none;stroke:red;stroke-miterlimit:10;stroke-width:5px;}</style></defs><title>random_2</title><g id="Layer_2" data-name="Layer 2"><g id="Layer_1-2" data-name="Layer 1"><path class="cls-1" d="M251.51,22.24a51.68,51.68,0,0,1,17,38c0,29.69-26,53.75-58,53.75h-53a5,5,0,0,1-5-5V10.29a3.79,3.79,0,0,1,3.79-3.79H210.5A60.2,60.2,0,0,1,251.51,22.24Z"/><path class="cls-2" d="M128.5,5.19V112.76a5.74,5.74,0,0,1-5.74,5.74H60.5a58,58,0,0,1,0-116h65.31A2.68,2.68,0,0,1,128.5,5.19Z"/><path class="cls-3" d="M122.76,118.5H60.5a58,58,0,0,1,0-116h65.31a2.68,2.68,0,0,1,2.69,2.69V112.76A5.74,5.74,0,0,1,122.76,118.5Z"/><path class="cls-3" d="M210.5,6.5H156.29a3.79,3.79,0,0,0-3.79,3.79V109a5,5,0,0,0,5,5h53c32,0,58-24.06,58-53.75a51.68,51.68,0,0,0-17-38A60.2,60.2,0,0,0,210.5,6.5Z"/></g></g></svg>